<?xml version="1.0" encoding="UTF-8"?>
<svg version="1.1" xmlns="http://www.w3.org/2000/svg" width="261" height="229">
<path d="M0 0 C86.13 0 172.26 0 261 0 C261 75.57 261 151.14 261 229 C174.87 229 88.74 229 0 229 C0 153.43 0 77.86 0 0 Z " fill="#FBFCFC" transform="translate(0,0)"/>
<path d="M0 0 C9.41373879 7.68058921 16.38846421 19.31618605 18.515625 31.26953125 C18.80764131 34.73304466 18.84071332 38.17015505 18.828125 41.64453125 C18.84423828 42.52625 18.86035156 43.40796875 18.87695312 44.31640625 C18.88111196 49.98905659 18.03855375 54.64250593 16.06323242 59.96728516 C15.3995319 62.75760879 15.69399744 64.53809763 16.515625 67.26953125 C18.34590212 69.403631 18.34590212 69.403631 20.765625 71.33203125 C21.66152344 72.10160156 22.55742187 72.87117188 23.48046875 73.6640625 C23.96757324 74.07865723 24.45467773 74.49325195 24.95654297 74.92041016 C27.80732723 77.38728047 30.56268869 79.95790143 33.328125 82.51953125 C34.13588379 83.2621521 34.13588379 83.2621521 34.95996094 84.01977539 C45.30753243 93.56385443 45.30753243 93.56385443 45.75390625 97.22265625 C45.96880487 103.8732031 44.31245135 107.16194641 39.828125 112.14453125 C36.18418406 113.91725927 32.46927646 114.08201302 28.515625 113.26953125 C23.19700998 110.28338148 19.01811619 106.16359183 14.640625 101.95703125 C12.62034176 100.02822519 10.59672019 98.10386494 8.55957031 96.19287109 C7.1590829 94.87502113 5.77362443 93.54106834 4.40136719 92.19384766 C3.71461914 91.54464355 3.02787109 90.89543945 2.3203125 90.2265625 C1.40354736 89.33868042 1.40354736 89.33868042 0.46826172 88.43286133 C-1.48108741 87.0109308 -1.48108741 87.0109308 -4.08349609 87.5168457 C-6.60845403 88.30843054 -8.68243576 89.34377791 -10.984375 90.64453125 C-22.84590697 96.70709204 -36.27729098 98.26967083 -49.109375 94.64453125 C-65.06541364 89.15904149 -75.64113616 80.14016717 -83.734375 65.39453125 C-89.87264449 52.11258607 -90.60220338 36.9948494 -85.7421875 23.23046875 C-80.07200377 9.88264494 -70.44287977 -1.52939461 -56.91015625 -7.23828125 C-36.26961757 -14.7870676 -17.95849483 -12.5088258 0 0 Z " fill="#25343E" transform="translate(208.484375,99.73046875)"/>
<path d="M0 0 C45.09909529 -0.04030303 45.09909529 -0.04030303 63.93554688 -0.04882812 C76.96378979 -0.05477169 89.99202626 -0.06177496 103.02026367 -0.07543945 C112.50683569 -0.0853846 121.99340249 -0.09185302 131.47997957 -0.09408849 C136.50632755 -0.09539589 141.53266062 -0.09848356 146.55900383 -0.10573006 C151.28421897 -0.11248761 156.00941298 -0.11461751 160.73463249 -0.11310768 C162.47416295 -0.11338413 164.21369407 -0.11539082 165.95322037 -0.11920547 C168.31758985 -0.12413859 170.68187825 -0.12299972 173.04624939 -0.12025452 C173.74370724 -0.12316736 174.44116509 -0.1260802 175.15975803 -0.12908131 C179.88587879 -0.11412121 179.88587879 -0.11412121 181 1 C181.09396057 2.93306498 181.11743517 4.86958838 181.11352539 6.80493164 C181.11344986 8.04614273 181.11337433 9.28735382 181.11329651 10.56617737 C181.10818911 11.9308374 181.1029731 13.29549702 181.09765625 14.66015625 C181.095792 16.04878183 181.09436813 17.43740807 181.09336853 18.82603455 C181.08954387 22.48721115 181.07971403 26.1483483 181.06866455 29.80950928 C181.05844932 33.54292263 181.05387067 37.27634234 181.04882812 41.00976562 C181.03809171 48.33986177 181.02101591 55.66992536 181 63 C180.01257813 62.43410156 179.02515625 61.86820313 178.0078125 61.28515625 C176.71355794 60.54424241 175.41928621 59.80335855 174.125 59.0625 C173.47402344 58.68931641 172.82304687 58.31613281 172.15234375 57.93164062 C168.61253166 55.89866922 168.61253166 55.89866922 165 54 C165 40.8 165 27.6 165 14 C115.5 14 66 14 15 14 C15 50.3 15 86.6 15 124 C37.11 124 59.22 124 82 124 C86 135 86 135 86 138 C57.62 138 29.24 138 0 138 C0 92.46 0 46.92 0 0 Z " fill="#1A2E38" transform="translate(31,30)"/>
<path d="M0 0 C11.07906563 6.51480268 17.18092924 14.79278771 21.25 27 C22.1275851 40.35080276 21.17976002 51.3029759 12.22265625 61.93359375 C4.25158471 70.28348849 -4.36815497 74.94411386 -15.97631836 75.52197266 C-27.07209158 75.72534004 -35.50585801 73.03567397 -44.125 65.8125 C-52.06966186 58.14883904 -56.92653155 49.28575391 -57.12988281 38.17260742 C-57.12827148 37.35252197 -57.12666016 36.53243652 -57.125 35.6875 C-57.12338867 34.84098877 -57.12177734 33.99447754 -57.12011719 33.12231445 C-56.99905283 26.97592439 -56.19343294 22.20685188 -52.75 17 C-52.151875 15.96875 -51.55375 14.9375 -50.9375 13.875 C-38.76950453 -2.11722262 -18.84776854 -8.95472986 0 0 Z " fill="#F9FAFB" transform="translate(191.75,106)"/>
<path d="M0 0 C15.13365457 -0.2104672 30.26724156 -0.36905861 45.4020319 -0.46630955 C52.42989658 -0.51267084 59.45685074 -0.57584597 66.48413086 -0.67895508 C73.26636302 -0.77842103 80.04764887 -0.83056307 86.8305645 -0.85389519 C89.41784998 -0.8705214 92.00508385 -0.90298978 94.59196663 -0.95157051 C98.21747629 -1.01694666 101.83908336 -1.02590071 105.46508789 -1.02172852 C107.06839211 -1.07026474 107.06839211 -1.07026474 108.7040863 -1.11978149 C115.84414507 -1.03091865 115.84414507 -1.03091865 119.12637138 1.89653206 C120.9213531 4.18806399 122.47280454 6.5240786 124 9 C125.32917292 10.66998649 126.66014102 12.33857487 128 14 C115.11544736 14.11682308 102.2310246 14.20518025 89.34604645 14.25906086 C83.36038758 14.28494549 77.37509601 14.31994839 71.38964844 14.37719727 C65.59293611 14.43228199 59.79657277 14.46157849 53.99961853 14.47438622 C51.80885843 14.48349101 49.61811329 14.50126109 47.42750549 14.52865028 C32.31556255 14.70975307 13.85431918 14.92715959 0 8 C0 5.36 0 2.72 0 0 Z " fill="#21333B" transform="translate(5,175)"/>
<path d="M0 0 C4.11718093 1.64687237 7.02515269 3.93376076 10 7.1875 C11.9265049 12.60579504 11.71305984 17.90043492 9.875 23.3125 C6.99644284 27.43843192 3.86637047 30.37787651 -1 32 C-6.08818127 32.62267953 -10.55586621 32.78986086 -14.9375 29.875 C-18.79854154 26.59675719 -20.70130187 23.50159685 -21.3125 18.3828125 C-21.51002308 13.82743636 -21.34271333 10.7249705 -19.375 6.5625 C-13.52818153 0.25409059 -8.45302786 -1.38888276 0 0 Z " fill="#1C2F3B" transform="translate(179,126)"/>
<path d="M0 0 C1.17825358 0.90172468 2.34231577 1.82201502 3.5 2.75 C4.1496875 3.26046875 4.799375 3.7709375 5.46875 4.296875 C7 6 7 6 7 10 C6.67 10.99 6.34 11.98 6 13 C5.46181145 19.45826265 6.25296368 22.69169854 10 28 C13.12092363 31.02024867 14.42962383 31.08592477 19 32 C19 35.96 19 39.92 19 44 C10.89036097 42.71275571 4.57881004 40.19403525 -0.86328125 33.81640625 C-3.8047464 29.65342574 -5.79265248 26.18368795 -6 21 C-6.06058594 20.1646875 -6.12117188 19.329375 -6.18359375 18.46875 C-6.47534826 12.0324688 -5.67996289 7.35877807 -2 2 C-1.34 1.34 -0.68 0.68 0 0 Z " fill="#21313B" transform="translate(72,74)"/>
<path d="M0 0 C4.61253519 3.8172705 6.44051167 8.31951048 7.32421875 14.1328125 C7.71361203 21.62527627 5.10758088 28.5375457 1.25 34.875 C-4.56206425 40.3641718 -10.17477771 42.65503992 -18 44 C-18 40.04 -18 36.08 -18 32 C-16.783125 31.67 -15.56625 31.34 -14.3125 31 C-9.97988854 29.36084149 -8.03440386 27.2106485 -5.83984375 23.18359375 C-3.6946941 17.60620467 -4.81811665 12.45470838 -7 7 C-4.69 4.69 -2.38 2.38 0 0 Z " fill="#1F303B" transform="translate(113,74)"/>
<path d="M0 0 C2.32506163 1.18257445 4.50844072 2.40520415 6.65625 3.8828125 C6.65625 6.8828125 6.65625 6.8828125 5.125 8.70703125 C4.15046875 9.62935547 4.15046875 9.62935547 3.15625 10.5703125 C2.18171875 11.50423828 2.18171875 11.50423828 1.1875 12.45703125 C0.6821875 12.92753906 0.176875 13.39804688 -0.34375 13.8828125 C-1.106875 13.5528125 -1.87 13.2228125 -2.65625 12.8828125 C-7.54085579 11.55817364 -12.30768307 11.34521038 -17.34375 11.8828125 C-18.33375 12.5428125 -19.32375 13.2028125 -20.34375 13.8828125 C-23.16644992 13.71056113 -24.12073112 13.12475729 -26.046875 11.03515625 C-26.55734375 10.30425781 -27.0678125 9.57335937 -27.59375 8.8203125 C-28.11453125 8.08683594 -28.6353125 7.35335937 -29.171875 6.59765625 C-29.55859375 6.03175781 -29.9453125 5.46585937 -30.34375 4.8828125 C-29.24307004 4.06559533 -28.13805269 3.25421799 -27.03125 2.4453125 C-26.41636719 1.99285156 -25.80148438 1.54039063 -25.16796875 1.07421875 C-18.77195534 -3.10304911 -7.06359761 -2.36003378 0 0 Z " fill="#1E2F39" transform="translate(104.34375,62.1171875)"/>
<path d="M0 0 C13.86 0 27.72 0 42 0 C42 2.97 42 5.94 42 9 C28.14 9 14.28 9 0 9 C0 6.03 0 3.06 0 0 Z " fill="#2E3A46" transform="translate(134,65)"/>
<path d="M0 0 C15.51 0 31.02 0 47 0 C47 2.64 47 5.28 47 8 C31.49 8 15.98 8 0 8 C0 5.36 0 2.72 0 0 Z " fill="#20313A" transform="translate(66,128)"/>
<path d="M0 0 C0.78503906 -0.01224609 1.57007813 -0.02449219 2.37890625 -0.03710938 C4.42063726 -0.04236254 6.46192251 0.0652982 8.5 0.1875 C9.16 0.8475 9.82 1.5075 10.5 2.1875 C6.9775246 3.26668977 3.67240199 3.35394265 0 3.375 C-1.1240625 3.38917969 -2.248125 3.40335938 -3.40625 3.41796875 C-6.36976056 3.19720218 -8.0067415 2.7335647 -10.5 1.1875 C-7.21646451 -0.45426774 -3.60480362 0.00295961 0 0 Z " fill="#353E46" transform="translate(172.5,192.8125)"/>
<path d="M0 0 C0.33 0 0.66 0 1 0 C2.7608506 4.55585155 3.27074591 8.37471059 3.25 13.25 C3.25515625 14.47203125 3.2603125 15.6940625 3.265625 16.953125 C3 20 3 20 1 22 C0.02700844 17.14270355 -0.12038805 12.5499375 -0.0625 7.625 C-0.05798828 6.88894531 -0.05347656 6.15289062 -0.04882812 5.39453125 C-0.03715142 3.59631842 -0.01922011 1.79814803 0 0 Z " fill="#313C42" transform="translate(120,133)"/>
<path d="M0 0 C3.3 0 6.6 0 10 0 C6.80331012 2.6486859 3.60513403 4.93992341 0 7 C0 4.69 0 2.38 0 0 Z " fill="#26272B" transform="translate(134,87)"/>
<path d="M0 0 C1.17825358 0.90172468 2.34231577 1.82201502 3.5 2.75 C4.1496875 3.26046875 4.799375 3.7709375 5.46875 4.296875 C7 6 7 6 7 10 C6.34 10.66 5.68 11.32 5 12 C4.34 9.69 3.68 7.38 3 5 C1.02 5.33 -0.96 5.66 -3 6 C-1.125 1.125 -1.125 1.125 0 0 Z " fill="#1B232A" transform="translate(72,74)"/>
<path d="M0 0 C-1.44126786 3.36295835 -3.20592655 5.62927102 -6 8 C-6.99 8 -7.98 8 -9 8 C-9 6 -9 6 -7.5390625 4.4921875 C-6.59160156 3.69167969 -6.59160156 3.69167969 -5.625 2.875 C-4.99851563 2.33617187 -4.37203125 1.79734375 -3.7265625 1.2421875 C-2 0 -2 0 0 0 Z " fill="#212A32" transform="translate(206,167)"/>
<path d="M0 0 C0.33 0 0.66 0 1 0 C1.45732667 5.71658336 0.52273754 8.48649253 -3 13 C-3.33 11.68 -3.66 10.36 -4 9 C-3.34 9 -2.68 9 -2 9 C-2 8.01 -2 7.02 -2 6 C-1.34 6 -0.68 6 0 6 C0 4.02 0 2.04 0 0 Z " fill="#141D20" transform="translate(253,197)"/>
<path d="M0 0 C3.465 1.98 3.465 1.98 7 4 C6.67 5.32 6.34 6.64 6 8 C4.99403703 7.0479279 3.99538437 6.08812654 3 5.125 C2.443125 4.59132812 1.88625 4.05765625 1.3125 3.5078125 C0 2 0 2 0 0 Z " fill="#353C43" transform="translate(218,195)"/>
<path d="M0 0 C2.86724686 0.57344937 3.8614515 0.8614515 6 3 C5.625 5.125 5.625 5.125 5 7 C3.29115995 5.37660195 1.62553283 3.70680947 0 2 C0 1.34 0 0.68 0 0 Z " fill="#343D41" transform="translate(208,102)"/>
</svg>
